<svg width="24" height="24" viewBox="0 0 24 24" fill="none" xmlns="http://www.w3.org/2000/svg">
    <path fill-rule="evenodd" clip-rule="evenodd" d="M2 0C0.895431 0 0 0.89543 0 2V22C0 23.1046 0.89543 24 2 24H22C23.1046 24 24 23.1046 24 22V2C24 0.895431 23.1046 0 22 0H2ZM17.5391 17.6743L19.9534 6.46644C20.1677 5.47855 19.5927 5.09183 18.9355 5.33441L4.74266 10.7168C3.77481 11.0895 3.78909 11.6239 4.57838 11.8664L8.20695 12.9844L16.6355 7.76019C17.0319 7.50004 17.3927 7.64418 17.0962 7.90433L10.2784 13.9688L10.0141 17.6567C10.3927 17.6567 10.5569 17.495 10.7534 17.3016L12.5284 15.6211L16.2069 18.2895C16.8819 18.6621 17.3569 18.4653 17.5391 17.6743Z" fill="white"></path>
</svg>