<svg width="24" height="24" viewBox="0 0 24 24" fill="none" xmlns="http://www.w3.org/2000/svg">
    <path fill-rule="evenodd" clip-rule="evenodd" d="M2 0C0.895431 0 0 0.89543 0 2V22C0 23.1046 0.89543 24 2 24H22C23.1046 24 24 23.1046 24 22V2C24 0.895431 23.1046 0 22 0H2ZM19.1066 8C19.6354 8 19.7453 8.25875 19.6354 8.61031C19.4156 9.575 17.2799 12.4213 17.277 12.4241C17.0928 12.7053 17.0186 12.8459 17.277 13.1609C17.2964 13.1869 17.395 13.2823 17.544 13.4265C18.1709 14.0332 19.6903 15.5038 19.9591 16.2969C20.1047 16.7638 19.8522 17 19.3532 17H17.6037C17.1365 17 16.9007 16.7517 16.3902 16.2143C16.1738 15.9864 15.908 15.7065 15.5542 15.3716C14.5147 14.4237 14.0691 14.3 13.8107 14.3C13.3366 14.3 13.3378 14.4277 13.349 15.616C13.351 15.8273 13.3533 16.0722 13.3533 16.3559C13.3533 16.7638 13.2167 17 12.1028 17C10.2494 17 8.2118 15.9341 6.76529 13.9681C4.59405 11.0881 4 8.90844 4 8.46969C4 8.22219 4.10099 8 4.59999 8H6.34946C6.79797 8 6.96727 8.18563 7.13955 8.64406C7.99497 11.0066 9.43851 13.0709 10.0326 13.0709C10.2553 13.0709 10.3563 12.9725 10.3563 12.4381V9.99687C10.3159 9.30125 10.0597 9.00027 9.87008 8.77743C9.75301 8.63989 9.66128 8.53212 9.66128 8.37969C9.66128 8.19687 9.82761 8 10.1068 8H12.8573C13.2256 8 13.3503 8.18844 13.3503 8.61031V11.8925C13.3503 12.2441 13.5196 12.3678 13.6295 12.3678C13.8523 12.3678 14.0394 12.2441 14.4463 11.8587C15.7057 10.5256 16.5968 8.46969 16.5968 8.46969C16.7067 8.22219 16.9116 8 17.3572 8H19.1066Z" fill="white"></path>
</svg>